        <svg xmlns="http://www.w3.org/2000/svg" viewBox="0 0 1440 320"><path fill="#0099ff" fill-opacity="1" d="M0,256L0,288L36.9,288L36.9,160L73.8,160L73.8,160L110.8,160L110.8,288L147.7,288L147.7,128L184.6,128L184.6,288L221.5,288L221.5,288L258.5,288L258.5,192L295.4,192L295.4,192L332.3,192L332.3,160L369.2,160L369.2,64L406.2,64L406.2,64L443.1,64L443.1,64L480,64L480,288L516.9,288L516.9,160L553.8,160L553.8,32L590.8,32L590.8,224L627.7,224L627.7,96L664.6,96L664.6,256L701.5,256L701.5,32L738.5,32L738.5,128L775.4,128L775.4,32L812.3,32L812.3,224L849.2,224L849.2,0L886.2,0L886.2,288L923.1,288L923.1,256L960,256L960,32L996.9,32L996.9,128L1033.8,128L1033.8,192L1070.8,192L1070.8,256L1107.7,256L1107.7,288L1144.6,288L1144.6,96L1181.5,96L1181.5,96L1218.5,96L1218.5,256L1255.4,256L1255.4,224L1292.3,224L1292.3,256L1329.2,256L1329.2,288L1366.2,288L1366.2,224L1403.1,224L1403.1,128L1440,128L1440,320L1403.1,320L1403.1,320L1366.2,320L1366.2,320L1329.2,320L1329.2,320L1292.3,320L1292.3,320L1255.4,320L1255.4,320L1218.5,320L1218.5,320L1181.5,320L1181.5,320L1144.6,320L1144.6,320L1107.7,320L1107.7,320L1070.8,320L1070.8,320L1033.8,320L1033.8,320L996.9,320L996.9,320L960,320L960,320L923.1,320L923.1,320L886.2,320L886.2,320L849.2,320L849.2,320L812.3,320L812.3,320L775.4,320L775.4,320L738.5,320L738.5,320L701.5,320L701.5,320L664.6,320L664.6,320L627.7,320L627.7,320L590.8,320L590.8,320L553.8,320L553.8,320L516.9,320L516.9,320L480,320L480,320L443.1,320L443.1,320L406.2,320L406.2,320L369.2,320L369.2,320L332.3,320L332.3,320L295.4,320L295.4,320L258.5,320L258.5,320L221.5,320L221.5,320L184.6,320L184.6,320L147.7,320L147.7,320L110.8,320L110.8,320L73.8,320L73.8,320L36.9,320L36.9,320L0,320L0,320Z">
        </path>
    </svg>